<svg width="489" height="489" viewBox="0 0 489 489" fill="none" xmlns="http://www.w3.org/2000/svg">
<g clip-path="url(#clip0_267_5157)">
<path d="M488.443 0.407227H-3.12418V494.841H488.443V0.407227Z" fill="#77CDFF"/>
<path d="M195.6 351.183C195.6 346.742 192.598 345.927 185.032 348.738C170.43 354.172 156.507 358.668 151.468 362.132C148.656 364.047 146.034 374.234 151.02 374.234C153.628 374.234 310.216 375.09 312.838 375.09C317.796 375.09 317.171 365.106 311.846 362.362C305.937 359.32 276.299 347.964 276.299 347.964L265.581 347.855C263.103 345.087 259.654 343.38 255.951 343.088C248.14 342.843 202.691 341.512 193.576 342.137C184.462 342.762 179.694 350.572 179.83 350.491" fill="#0068DF"/>
<path d="M195.6 351.183C195.6 346.742 192.598 345.927 185.032 348.738C170.43 354.172 156.507 358.668 151.468 362.132C148.656 364.047 146.034 374.234 151.02 374.234C153.628 374.234 310.216 375.09 312.838 375.09C317.796 375.09 317.171 365.106 311.846 362.362C305.937 359.32 276.299 347.964 276.299 347.964L265.581 347.855C263.103 345.087 259.654 343.38 255.951 343.088C248.14 342.843 202.691 341.512 193.576 342.137C184.462 342.762 179.694 350.572 179.83 350.491" stroke="#0068DF" stroke-width="1.24" stroke-miterlimit="10"/>
<path d="M264.182 67.7403C264.277 67.7403 273.188 74.8715 277.684 83.2932C286.608 99.8513 293.115 122.984 291.634 132.288C289.406 146.347 267.184 170.634 267.184 170.634L258.192 162.606L276.828 129.259L265.867 97.3791C265.867 97.3791 251.957 130.658 247.882 167.741C247.882 168.148 203.302 156.698 203.234 156.467C196.659 137.029 217.143 93.5758 217.143 93.5758C217.143 93.5758 205.38 113.951 197.746 122.984C190.112 132.017 164.263 150.667 164.263 150.667L157.091 138.346L189.868 105.081C189.868 105.081 208.015 60.4324 236.527 61.2203C236.499 61.2203 245.125 78.2945 264.182 67.7403Z" fill="white" stroke="#141414" stroke-width="0.86" stroke-linecap="round" stroke-linejoin="round"/>
<path d="M206.48 124.641L210.528 132.288L218.569 128.363L222.672 136.037L230.754 131.677L234.829 139.773L242.775 135.82L246.157 143.101L251.998 140.235L256.779 123.785L251.319 126.366L247.937 119.085L239.977 123.038L235.915 114.942L227.833 119.303L223.717 111.642L215.676 115.567L211.628 107.906L206.48 124.641Z" fill="#0068DF" stroke="#0068DF" stroke-width="0.86" stroke-linecap="round" stroke-linejoin="round"/>
<path d="M339.257 310.76C321.752 299.632 306.291 285.576 293.549 269.208C293.549 269.208 282.683 253.031 273.269 219.222C277.507 253.248 278.282 270.689 279.83 276.679C281.379 282.67 320.078 326.204 320.078 326.204C320.078 326.204 310.814 335.128 310.705 335.06C263.856 303.819 255.584 276.272 255.584 276.272C248.101 249.779 242.808 222.716 239.759 195.356C239.678 194.541 260.474 188.388 260.474 188.388C260.474 188.388 287.26 178.73 287.464 179.056C302.664 204.28 309.415 252.65 309.415 252.65L347.095 300.192L339.257 310.76Z" fill="white" stroke="#141414" stroke-width="0.86" stroke-linecap="round" stroke-linejoin="round"/>
<path d="M346.361 191.05L381.352 226.842L351.849 258.192L335.929 241.906L342.979 232.18L339.543 228.662L330.292 235.671L314.128 218.814L346.361 191.05Z" fill="#0068DF" stroke="#0068DF" stroke-width="1.29" stroke-linecap="round" stroke-linejoin="round"/>
<path d="M359.958 203.302C359.958 203.302 345.546 219.154 343.794 221.123C340.14 225.198 344.772 231.99 350.681 228.173C356.902 224.179 369.698 213.516 369.698 213.516" stroke="white" stroke-width="0.88" stroke-miterlimit="10"/>
<path d="M360.964 213.598C361.901 213.598 362.661 212.838 362.661 211.9C362.661 210.962 361.901 210.202 360.964 210.202C360.026 210.202 359.266 210.962 359.266 211.9C359.266 212.838 360.026 213.598 360.964 213.598Z" fill="white"/>
<path d="M338.768 195.586L376.72 233.633" stroke="white" stroke-width="0.88" stroke-miterlimit="10"/>
<path d="M316.383 215.5L334.15 233.919" stroke="white" stroke-width="0.88" stroke-miterlimit="10"/>
<path d="M338.062 237.708L355.978 255.027" stroke="white" stroke-width="0.88" stroke-miterlimit="10"/>
<path d="M126.325 266.804C126.991 267.796 151.115 330.999 151.115 330.999L141.538 335.074C112.416 296.239 110.297 259.197 111.9 258.151" fill="white"/>
<path d="M126.325 266.804C126.991 267.796 151.115 330.999 151.115 330.999L141.538 335.074C112.416 296.239 110.297 259.197 111.9 258.151" stroke="#141414" stroke-width="0.86" stroke-linecap="round" stroke-linejoin="round"/>
<path d="M170.281 220.919C170.281 220.919 199.512 226.488 201.522 228.512L201.645 246.428L163.19 240.425" fill="white"/>
<path d="M170.281 220.919C170.281 220.919 199.512 226.488 201.522 228.512L201.645 246.428L163.19 240.425" stroke="#141414" stroke-width="0.86" stroke-linecap="round" stroke-linejoin="round"/>
<path d="M146.944 223.69L169.18 220.851C167.882 224.406 167.921 228.312 169.289 231.84C171.666 237.273 209.075 293.59 209.075 293.59L164.807 323.283C164.807 323.283 129.857 267.958 125.877 266.314C121.897 264.671 111.546 257.784 111.546 257.784L123.418 240.425L121.367 230.128C121.367 230.128 123.024 225.904 130.128 221.707C136.92 217.632 140.913 217.632 140.913 217.632L146.944 223.663" fill="#0068DF"/>
<path d="M146.944 223.69L169.18 220.851C167.882 224.406 167.921 228.312 169.289 231.84C171.666 237.273 209.075 293.59 209.075 293.59L164.807 323.283C164.807 323.283 129.857 267.958 125.877 266.314C121.897 264.671 111.546 257.784 111.546 257.784L123.418 240.425L121.367 230.128C121.367 230.128 123.024 225.904 130.128 221.707C136.92 217.632 140.913 217.632 140.913 217.632L146.944 223.663" stroke="#0068DF" stroke-width="1.03" stroke-linecap="round" stroke-linejoin="round"/>
<path d="M199.335 240.887L207.322 281.569C207.322 281.569 215.472 280.537 215.567 280.062C220.077 248.698 201.889 227.711 200.626 227.983" fill="white"/>
<path d="M199.335 240.887L207.322 281.569C207.322 281.569 215.472 280.537 215.567 280.062C220.077 248.698 201.889 227.711 200.626 227.983" stroke="#141414" stroke-width="0.86" stroke-linecap="round" stroke-linejoin="round"/>
<path d="M122.97 232.968L124.192 239.081C125.087 240.91 126.356 242.531 127.916 243.839C129.477 245.147 131.295 246.113 133.253 246.674C133.429 246.674 137.803 235.25 137.803 235.25L122.943 232.859" fill="white"/>
<path d="M122.97 232.968L124.192 239.081C125.087 240.91 126.356 242.531 127.916 243.839C129.477 245.147 131.295 246.113 133.253 246.674C133.429 246.674 137.803 235.25 137.803 235.25L122.943 232.859" stroke="white" stroke-width="0.86" stroke-linecap="round" stroke-linejoin="round"/>
<path d="M146.537 225.212C146.537 225.212 148.982 227.344 150.395 234.815L137.898 235.196L140.723 218.896L146.537 225.212Z" fill="white" stroke="white" stroke-width="0.86" stroke-linecap="round" stroke-linejoin="round"/>
<path d="M305.313 451.456H163.706C150.626 451.456 146.36 430.659 146.958 412.349C147.257 403.18 148.425 370.771 148.425 370.771H316.492C316.492 370.771 317.673 381.732 318.842 418.72C319.439 437.614 313.666 451.456 305.313 451.456Z" fill="#0068DF" stroke="#0068DF" stroke-width="0.83" stroke-miterlimit="10"/>
<path d="M247.678 376.367C247.678 376.367 246.076 387.125 237.776 387.125H227.765C219.479 387.125 218.108 376.761 218.108 376.761" stroke="white" stroke-width="0.99" stroke-linecap="round" stroke-linejoin="round"/>
<path d="M210.949 377.019C210.161 389.095 222.59 393.862 227.779 393.862H237.803C242.992 393.862 254.864 389.787 254.864 376.625" stroke="white" stroke-width="0.99" stroke-linecap="round" stroke-linejoin="round"/>
<path d="M165.513 364.034C161.438 364.034 161.628 363.015 163.462 362.105C165.296 361.195 194.975 351.048 194.975 351.048L269.235 351.686C269.235 351.686 299.119 361.616 300.762 362.757C302.406 363.898 301.455 364.672 299.798 364.672L165.513 364.034Z" fill="#141414" stroke="#141414" stroke-width="0.79" stroke-miterlimit="10"/>
<path d="M233.864 273.84V329.192" stroke="#141414" stroke-width="0.86" stroke-linecap="round" stroke-linejoin="round"/>
<path d="M246.537 315.392L240.017 322.849L233.511 330.306L227.005 322.849L220.485 315.392" stroke="#141414" stroke-width="0.86" stroke-linecap="round" stroke-linejoin="round"/>
<path d="M263.517 343.577C263.517 343.577 267.89 348.888 268.23 351.605" stroke="white" stroke-width="1.03" stroke-miterlimit="10"/>
<path d="M241.485 201.36L288.401 185.521" stroke="#141414" stroke-width="0.86" stroke-miterlimit="10" stroke-linecap="round"/>
<path d="M259.7 199.757L264.264 212.851C266.505 218.977 273.297 218.977 273.297 218.977" stroke="#141414" stroke-width="0.86" stroke-miterlimit="10" stroke-linecap="round"/>
<path d="M276.937 190.018C276.937 190.018 280.265 203.153 293.006 202.161" stroke="#141414" stroke-width="0.86" stroke-miterlimit="10" stroke-linecap="round"/>
<path d="M247.869 199.675C247.869 199.675 255.598 212.688 247.366 219.765" stroke="#141414" stroke-width="0.86" stroke-miterlimit="10" stroke-linecap="round"/>
<path d="M172.902 394.297C171.734 426.476 176.067 448.793 176.067 448.793" stroke="white" stroke-width="0.96" stroke-miterlimit="10"/>
<path d="M173.772 377.427C173.323 389.652 173.024 390.1 173.024 390.1" stroke="white" stroke-width="0.96" stroke-miterlimit="10"/>
<path d="M291.797 422.659C292.558 442.111 288.293 448.794 288.293 448.794" stroke="white" stroke-width="0.96" stroke-miterlimit="10"/>
<path d="M290.588 377.427C291.036 389.652 291.661 418.448 291.661 418.448" stroke="white" stroke-width="0.96" stroke-miterlimit="10"/>
<path d="M317.225 370.975C246.796 372.944 146.958 371.273 146.958 371.273" stroke="white" stroke-miterlimit="10"/>
<path d="M345.492 122.006C343.047 142 338.442 166.07 332.275 167.591C326.774 168.95 321.151 166.084 314.183 163.516C306.033 160.514 297.298 162.158 296.524 157.024C295.75 151.889 299.567 147.298 321.748 151.115C326.503 132.37 331.909 116.735 331.909 116.735C331.909 116.735 345.506 121.843 345.492 122.006Z" fill="#0068DF" stroke="#0068DF" stroke-width="1.72" stroke-linecap="round" stroke-linejoin="round"/>
<path d="M335.875 157.96C335.875 157.96 333.797 166.206 330.211 166.749C326.625 167.292 320.309 164.426 318.651 163.747C325.226 153.301 335.875 157.96 335.875 157.96Z" fill="white"/>
<path d="M311.697 148.059C311.697 148.059 321.205 150.11 324.628 150.381" stroke="#77CDFF" stroke-width="2" stroke-miterlimit="10"/>
<path d="M330.917 123.215L343.251 128.485" stroke="white" stroke-width="0.86" stroke-linecap="round" stroke-linejoin="round"/>
<path d="M329.627 126.271L343.251 131.935" stroke="white" stroke-width="0.86" stroke-linecap="round" stroke-linejoin="round"/>
<path d="M218.379 195.845C198.874 200.816 174.75 205.258 171.109 200.056C167.863 195.424 168.474 189.189 168.393 181.718C168.243 173.052 163.543 165.5 168.067 162.946C172.59 160.392 178.227 162.253 182.709 184.313C201.916 181.949 218.434 181.311 218.434 181.311C218.434 181.311 218.529 195.804 218.379 195.845Z" fill="#0068DF" stroke="#0068DF" stroke-width="1.72" stroke-linecap="round" stroke-linejoin="round"/>
<path d="M181.392 199.92C181.392 199.92 172.943 200.979 171.136 197.828C169.33 194.677 169.778 187.763 169.778 185.97C181.867 188.32 181.392 199.92 181.392 199.92Z" fill="white"/>
<path d="M181.881 173.785C181.881 173.785 183.416 183.443 184.407 186.689" stroke="white" stroke-width="0.86" stroke-linecap="round" stroke-linejoin="round"/>
<path d="M211.968 182.696L211.533 196.117" stroke="white" stroke-width="0.86" stroke-linecap="round" stroke-linejoin="round"/>
<path d="M208.654 182.614L208.314 197.366" stroke="white" stroke-width="0.86" stroke-linecap="round" stroke-linejoin="round"/>
<path d="M237.613 415.039C237.791 415.019 237.97 415.038 238.14 415.095C238.309 415.151 238.464 415.244 238.593 415.367C238.723 415.49 238.824 415.64 238.889 415.807C238.955 415.973 238.983 416.151 238.972 416.33C239.746 415.826 240.657 415.574 241.58 415.61C242.124 415.654 242.652 415.821 243.122 416.099C243.593 416.377 243.994 416.757 244.296 417.212C245.478 418.87 245.084 422.782 242.938 424.86C242.167 425.563 241.19 425.998 240.151 426.098C239.113 426.198 238.07 425.959 237.179 425.417C237.179 425.417 236.785 426.775 236.255 429.736C235.725 432.697 233.171 432.073 233.375 430.361C233.579 428.65 236.092 417.538 236.092 416.778C236.35 415.65 237.097 415.066 237.613 415.039ZM241.797 418.258C241.46 418.061 241.081 417.945 240.692 417.919C240.302 417.894 239.912 417.959 239.552 418.111C239.192 418.263 238.872 418.496 238.618 418.793C238.364 419.09 238.183 419.441 238.089 419.82C237.423 421.776 237.722 423.556 239.542 423.719C240.184 423.739 240.816 423.563 241.354 423.214C241.893 422.864 242.312 422.359 242.556 421.766C242.8 421.172 242.856 420.518 242.718 419.891C242.58 419.264 242.254 418.695 241.783 418.258H241.797Z" fill="white"/>
<path d="M217.999 415.65C218.608 415.663 219.209 415.797 219.767 416.044C220.324 416.291 220.826 416.647 221.245 417.089C221.65 417.506 221.964 418.003 222.165 418.548C222.366 419.093 222.451 419.675 222.414 420.254C222.413 421.07 222.249 421.877 221.932 422.628C221.615 423.379 221.15 424.059 220.566 424.628C220.029 425.147 219.388 425.547 218.686 425.802C217.984 426.057 217.236 426.162 216.491 426.109C215.145 426.106 213.855 425.568 212.905 424.615C212.488 424.173 212.167 423.648 211.963 423.075C211.76 422.502 211.678 421.893 211.723 421.287C211.723 420.491 211.89 419.703 212.213 418.976C212.535 418.248 213.007 417.596 213.598 417.062C214.2 416.544 214.899 416.153 215.655 415.91C216.411 415.667 217.208 415.579 217.999 415.65ZM217.483 417.375C217.088 417.372 216.7 417.469 216.353 417.656C216.006 417.844 215.713 418.116 215.5 418.448C214.961 419.321 214.653 420.316 214.603 421.341C214.536 422.061 214.672 422.786 214.997 423.433C215.188 423.714 215.445 423.944 215.746 424.103C216.047 424.262 216.382 424.344 216.722 424.343C217.118 424.35 217.509 424.258 217.86 424.075C218.211 423.892 218.511 423.625 218.732 423.297C219.252 422.54 219.54 421.648 219.561 420.73C219.647 419.922 219.515 419.106 219.181 418.366C219.012 418.061 218.767 417.805 218.469 417.624C218.171 417.443 217.831 417.343 217.483 417.334V417.375Z" fill="white"/>
<path d="M229.558 415.65C230.168 415.663 230.769 415.797 231.326 416.045C231.883 416.292 232.386 416.647 232.805 417.09C233.21 417.507 233.523 418.004 233.724 418.549C233.926 419.094 234.01 419.675 233.973 420.255C233.972 421.07 233.809 421.877 233.491 422.629C233.174 423.38 232.71 424.06 232.126 424.629C231.596 425.139 230.967 425.534 230.277 425.789C229.587 426.043 228.852 426.153 228.118 426.109C226.768 426.108 225.473 425.571 224.519 424.615C224.104 424.171 223.785 423.647 223.582 423.074C223.379 422.502 223.295 421.893 223.337 421.287C223.339 420.492 223.507 419.705 223.83 418.978C224.153 418.251 224.623 417.598 225.212 417.063C225.807 416.552 226.498 416.164 227.244 415.922C227.99 415.679 228.776 415.587 229.558 415.65ZM229.056 417.375C228.646 417.369 228.241 417.463 227.876 417.651C227.511 417.838 227.198 418.112 226.964 418.448C226.425 419.322 226.117 420.317 226.067 421.342C226 422.062 226.136 422.787 226.461 423.434C226.674 423.716 226.949 423.945 227.264 424.103C227.58 424.261 227.928 424.343 228.281 424.344C228.679 424.349 229.071 424.256 229.424 424.074C229.777 423.892 230.08 423.625 230.305 423.298C230.813 422.535 231.1 421.646 231.134 420.73C231.21 419.922 231.074 419.107 230.74 418.367C230.569 418.055 230.318 417.794 230.012 417.613C229.706 417.431 229.357 417.335 229.001 417.335L229.056 417.375Z" fill="white"/>
<path d="M248.915 414.767C249.336 414.767 250.273 415.039 249.797 417.158C249.512 418.516 248.724 422.224 248.724 422.265C248.625 422.665 248.571 423.075 248.561 423.488C248.619 423.701 248.754 423.886 248.939 424.006C249.125 424.127 249.348 424.174 249.567 424.14C251.1 423.768 252.506 422.994 253.642 421.898C253.642 421.898 254.457 423.338 254.484 423.488C252.838 425.016 250.709 425.92 248.466 426.041C248.075 426.048 247.687 425.972 247.327 425.82C246.967 425.668 246.643 425.443 246.374 425.158C245.938 424.579 245.735 423.857 245.804 423.135C245.804 422.985 245.804 422.822 245.872 422.645C245.94 422.469 247.013 417.049 247.23 416.221C247.272 415.809 247.469 415.428 247.783 415.158C248.096 414.888 248.501 414.748 248.915 414.767ZM248.548 410.814C248.697 410.682 248.871 410.581 249.06 410.518C249.249 410.455 249.449 410.431 249.648 410.448C250.048 410.482 250.419 410.673 250.68 410.977C250.815 411.128 250.917 411.304 250.98 411.496C251.043 411.688 251.066 411.89 251.047 412.091C251.041 412.292 250.99 412.488 250.898 412.667C250.806 412.845 250.676 413.001 250.517 413.124C250.366 413.256 250.189 413.356 249.998 413.417C249.806 413.478 249.604 413.498 249.404 413.477C249.205 413.467 249.011 413.415 248.833 413.327C248.656 413.238 248.498 413.113 248.371 412.961C248.241 412.811 248.142 412.636 248.082 412.447C248.021 412.258 247.999 412.058 248.018 411.86C248.034 411.657 248.092 411.459 248.187 411.279C248.283 411.099 248.415 410.941 248.575 410.814H248.548Z" fill="white"/>
<path d="M261.343 422.116C260.542 421.912 259.306 424.452 256.766 424.289C255.163 424.18 254.837 423.461 254.837 423.461C255.949 422.875 257.024 422.222 258.056 421.505C258.966 420.88 260.691 419.168 260.107 417.606C258.858 414.292 254.674 415.555 253.044 417.701C252.358 418.496 251.921 419.475 251.788 420.516C251.655 421.557 251.832 422.614 252.297 423.556C255.014 428.636 260.583 425.254 261.452 423.556C261.873 422.795 261.859 422.238 261.343 422.116ZM257.146 420.214C256.231 421.015 255.183 421.65 254.049 422.089C253.823 421.428 253.795 420.716 253.969 420.041C254.142 419.365 254.51 418.754 255.027 418.285C257.431 416.221 259.224 418.475 257.146 420.214Z" fill="white"/>
<path d="M208.368 424.588C209.075 422.278 209.659 418.815 210.189 415.935C219.384 412.621 220.24 402.352 215.051 402.012C212.212 401.835 209.129 403.696 207.526 414.237C206.271 414.368 205.003 414.313 203.764 414.074C203.098 413.965 202.677 414.59 203.057 415.283C203.655 416.356 206.412 416.478 207.255 416.41C207.255 416.41 206.358 421.545 205.801 423.46C202.894 421.3 200.096 421.382 198.317 423.148C197.653 423.812 197.185 424.647 196.964 425.56C196.744 426.473 196.779 427.429 197.067 428.323C197.416 429.224 198.008 430.009 198.778 430.592C199.549 431.175 200.466 431.533 201.427 431.624C204.484 431.624 205.326 430.265 207.2 427.304C207.2 427.304 211.384 432.819 220.322 431.148C221.503 430.917 223.568 430.13 223.595 429.328C223.595 428.201 222.549 427.888 221.49 428.296C219.217 429.324 216.653 429.515 214.252 428.837C211.851 428.158 209.767 426.653 208.368 424.588ZM214.82 409.646C212.905 412.688 211.221 413.191 210.501 413.381C212.403 400.097 218.597 403.696 214.82 409.7V409.646ZM199.281 427.875C198.208 425.077 200.735 422.604 205.163 425.878C203.383 430.686 199.933 429.573 199.281 427.875Z" fill="white"/>
<path d="M246.228 431.269H245.888L246.871 428.592H247.206L248.188 431.269H247.848L247.049 429.016H247.028L246.228 431.269ZM246.353 430.223H247.723V430.511H246.353V430.223ZM250.361 428.592H250.686V430.364C250.686 430.547 250.642 430.711 250.556 430.854C250.471 430.997 250.35 431.11 250.194 431.193C250.038 431.275 249.855 431.316 249.645 431.316C249.435 431.316 249.252 431.275 249.096 431.193C248.941 431.11 248.819 430.997 248.733 430.854C248.648 430.711 248.605 430.547 248.605 430.364V428.592H248.929V430.338C248.929 430.469 248.958 430.585 249.015 430.687C249.073 430.788 249.155 430.868 249.261 430.926C249.368 430.984 249.496 431.012 249.645 431.012C249.794 431.012 249.922 430.984 250.03 430.926C250.137 430.868 250.219 430.788 250.275 430.687C250.333 430.585 250.361 430.469 250.361 430.338V428.592ZM253.455 428.592V431.269H253.141L251.683 429.167H251.657V431.269H251.333V428.592H251.646L253.11 430.699H253.136V428.592H253.455ZM254.929 431.269H254.104V428.592H254.966C255.226 428.592 255.448 428.646 255.633 428.753C255.817 428.859 255.959 429.012 256.057 429.212C256.156 429.41 256.205 429.648 256.205 429.925C256.205 430.204 256.155 430.444 256.056 430.645C255.957 430.846 255.812 431 255.622 431.108C255.432 431.215 255.201 431.269 254.929 431.269ZM254.428 430.981H254.909C255.13 430.981 255.313 430.938 255.459 430.853C255.604 430.768 255.713 430.646 255.784 430.488C255.856 430.331 255.891 430.143 255.891 429.925C255.891 429.709 255.856 429.523 255.785 429.367C255.715 429.21 255.609 429.09 255.469 429.006C255.329 428.922 255.154 428.88 254.945 428.88H254.428V430.981ZM256.749 431.269V428.592H257.653C257.862 428.592 258.034 428.628 258.168 428.699C258.302 428.77 258.401 428.867 258.466 428.991C258.53 429.114 258.562 429.255 258.562 429.413C258.562 429.571 258.53 429.71 258.466 429.832C258.401 429.954 258.302 430.05 258.169 430.12C258.036 430.189 257.865 430.223 257.658 430.223H256.926V429.93H257.648C257.791 429.93 257.906 429.909 257.993 429.868C258.081 429.826 258.144 429.767 258.183 429.69C258.224 429.612 258.244 429.52 258.244 429.413C258.244 429.306 258.224 429.212 258.183 429.132C258.143 429.052 258.079 428.99 257.991 428.946C257.903 428.902 257.787 428.88 257.642 428.88H257.073V431.269H256.749ZM258.008 430.066L258.667 431.269H258.291L257.642 430.066H258.008ZM258.783 428.592H259.154L259.896 429.842H259.927L260.67 428.592H261.041L260.074 430.166V431.269H259.75V430.166L258.783 428.592Z" fill="white"/>
</g>
<defs>
<clipPath id="clip0_267_5157">
<rect width="489" height="489" rx="109" fill="white"/>
</clipPath>
</defs>
</svg>
